<mxfile host="app.diagrams.net" modified="2023-04-21T14:09:00.190Z" agent="Mozilla/5.0 (Windows NT 10.0; Win64; x64) AppleWebKit/537.36 (KHTML, like Gecko) Chrome/112.0.0.0 Safari/537.36" etag="nYPVoymuNzH5SrKdnNwo" version="21.2.1" type="device">
  <diagram name="Страница 1" id="wUFjKUP-yslYXvpgaLvC">
    <mxGraphModel dx="1615" dy="1924" grid="1" gridSize="10" guides="1" tooltips="1" connect="1" arrows="1" fold="1" page="1" pageScale="1" pageWidth="827" pageHeight="1169" math="0" shadow="0">
      <root>
        <mxCell id="0" />
        <mxCell id="1" parent="0" />
        <mxCell id="ibCcVE-JZ-RD2QA-IbQj-50" value="" style="group" vertex="1" connectable="0" parent="1">
          <mxGeometry x="170" y="10" width="100" height="100" as="geometry" />
        </mxCell>
        <mxCell id="ibCcVE-JZ-RD2QA-IbQj-51" value="" style="ellipse;whiteSpace=wrap;html=1;" vertex="1" parent="ibCcVE-JZ-RD2QA-IbQj-50">
          <mxGeometry width="100" height="100" as="geometry" />
        </mxCell>
        <mxCell id="ibCcVE-JZ-RD2QA-IbQj-52" value="" style="ellipse;whiteSpace=wrap;html=1;" vertex="1" parent="ibCcVE-JZ-RD2QA-IbQj-50">
          <mxGeometry x="30" width="40" height="40" as="geometry" />
        </mxCell>
        <mxCell id="ibCcVE-JZ-RD2QA-IbQj-53" value="" style="group" vertex="1" connectable="0" parent="ibCcVE-JZ-RD2QA-IbQj-50">
          <mxGeometry x="20" y="12.5" width="60" height="67.5" as="geometry" />
        </mxCell>
        <mxCell id="ibCcVE-JZ-RD2QA-IbQj-54" value="1" style="text;html=1;strokeColor=none;fillColor=none;align=center;verticalAlign=middle;whiteSpace=wrap;rounded=0;" vertex="1" parent="ibCcVE-JZ-RD2QA-IbQj-53">
          <mxGeometry x="15" width="30" height="15" as="geometry" />
        </mxCell>
        <mxCell id="ibCcVE-JZ-RD2QA-IbQj-55" value="&lt;div style=&quot;color: rgb(33, 33, 33); background-color: rgb(255, 255, 254); font-family: Consolas, &amp;quot;Courier New&amp;quot;, monospace; line-height: 16px;&quot;&gt;Колесникова Кристина&lt;/div&gt;" style="text;html=1;strokeColor=none;fillColor=none;align=center;verticalAlign=middle;whiteSpace=wrap;rounded=0;" vertex="1" parent="ibCcVE-JZ-RD2QA-IbQj-53">
          <mxGeometry y="37.5" width="60" height="30" as="geometry" />
        </mxCell>
        <mxCell id="ibCcVE-JZ-RD2QA-IbQj-56" value="" style="group" vertex="1" connectable="0" parent="1">
          <mxGeometry x="330" y="10" width="100" height="100" as="geometry" />
        </mxCell>
        <mxCell id="ibCcVE-JZ-RD2QA-IbQj-57" value="" style="ellipse;whiteSpace=wrap;html=1;" vertex="1" parent="ibCcVE-JZ-RD2QA-IbQj-56">
          <mxGeometry width="100" height="100" as="geometry" />
        </mxCell>
        <mxCell id="ibCcVE-JZ-RD2QA-IbQj-58" value="" style="ellipse;whiteSpace=wrap;html=1;" vertex="1" parent="ibCcVE-JZ-RD2QA-IbQj-56">
          <mxGeometry x="30" width="40" height="40" as="geometry" />
        </mxCell>
        <mxCell id="ibCcVE-JZ-RD2QA-IbQj-59" value="" style="group" vertex="1" connectable="0" parent="ibCcVE-JZ-RD2QA-IbQj-56">
          <mxGeometry x="20" y="12.5" width="60" height="67.5" as="geometry" />
        </mxCell>
        <mxCell id="ibCcVE-JZ-RD2QA-IbQj-60" value="6" style="text;html=1;strokeColor=none;fillColor=none;align=center;verticalAlign=middle;whiteSpace=wrap;rounded=0;" vertex="1" parent="ibCcVE-JZ-RD2QA-IbQj-59">
          <mxGeometry x="15" width="30" height="15" as="geometry" />
        </mxCell>
        <mxCell id="ibCcVE-JZ-RD2QA-IbQj-61" value="&lt;div style=&quot;color: rgb(33, 33, 33); background-color: rgb(255, 255, 254); font-family: Consolas, &amp;quot;Courier New&amp;quot;, monospace; line-height: 16px;&quot;&gt;&lt;div style=&quot;line-height: 16px;&quot;&gt;&lt;div style=&quot;line-height: 16px;&quot;&gt;&lt;div style=&quot;line-height: 16px;&quot;&gt;Некрасова Ольга&lt;/div&gt;&lt;/div&gt;&lt;/div&gt;&lt;/div&gt;" style="text;html=1;strokeColor=none;fillColor=none;align=center;verticalAlign=middle;whiteSpace=wrap;rounded=0;" vertex="1" parent="ibCcVE-JZ-RD2QA-IbQj-59">
          <mxGeometry y="37.5" width="60" height="30" as="geometry" />
        </mxCell>
        <mxCell id="ibCcVE-JZ-RD2QA-IbQj-80" value="" style="group" vertex="1" connectable="0" parent="1">
          <mxGeometry x="490" y="10" width="120" height="250" as="geometry" />
        </mxCell>
        <mxCell id="ibCcVE-JZ-RD2QA-IbQj-66" value="" style="group" vertex="1" connectable="0" parent="ibCcVE-JZ-RD2QA-IbQj-80">
          <mxGeometry x="10" width="100" height="100" as="geometry" />
        </mxCell>
        <mxCell id="ibCcVE-JZ-RD2QA-IbQj-67" value="" style="ellipse;whiteSpace=wrap;html=1;" vertex="1" parent="ibCcVE-JZ-RD2QA-IbQj-66">
          <mxGeometry width="100" height="100" as="geometry" />
        </mxCell>
        <mxCell id="ibCcVE-JZ-RD2QA-IbQj-68" value="" style="ellipse;whiteSpace=wrap;html=1;" vertex="1" parent="ibCcVE-JZ-RD2QA-IbQj-66">
          <mxGeometry x="30" width="40" height="40" as="geometry" />
        </mxCell>
        <mxCell id="ibCcVE-JZ-RD2QA-IbQj-69" value="" style="group" vertex="1" connectable="0" parent="ibCcVE-JZ-RD2QA-IbQj-66">
          <mxGeometry x="20" y="12.5" width="60" height="67.5" as="geometry" />
        </mxCell>
        <mxCell id="ibCcVE-JZ-RD2QA-IbQj-70" value="2" style="text;html=1;strokeColor=none;fillColor=none;align=center;verticalAlign=middle;whiteSpace=wrap;rounded=0;" vertex="1" parent="ibCcVE-JZ-RD2QA-IbQj-69">
          <mxGeometry x="15" width="30" height="15" as="geometry" />
        </mxCell>
        <mxCell id="ibCcVE-JZ-RD2QA-IbQj-71" value="&lt;div style=&quot;color: rgb(33, 33, 33); background-color: rgb(255, 255, 254); font-family: Consolas, &amp;quot;Courier New&amp;quot;, monospace; line-height: 16px;&quot;&gt;&lt;div style=&quot;line-height: 16px;&quot;&gt;Антонова Кира&lt;/div&gt;&lt;/div&gt;" style="text;html=1;strokeColor=none;fillColor=none;align=center;verticalAlign=middle;whiteSpace=wrap;rounded=0;" vertex="1" parent="ibCcVE-JZ-RD2QA-IbQj-69">
          <mxGeometry y="37.5" width="60" height="30" as="geometry" />
        </mxCell>
        <mxCell id="ibCcVE-JZ-RD2QA-IbQj-83" value="" style="group" vertex="1" connectable="0" parent="ibCcVE-JZ-RD2QA-IbQj-80">
          <mxGeometry y="150" width="120" height="100" as="geometry" />
        </mxCell>
        <mxCell id="ibCcVE-JZ-RD2QA-IbQj-12" value="" style="group" vertex="1" connectable="0" parent="ibCcVE-JZ-RD2QA-IbQj-83">
          <mxGeometry width="120" height="100" as="geometry" />
        </mxCell>
        <mxCell id="ibCcVE-JZ-RD2QA-IbQj-13" value="" style="rounded=0;whiteSpace=wrap;html=1;" vertex="1" parent="ibCcVE-JZ-RD2QA-IbQj-12">
          <mxGeometry width="120" height="100" as="geometry" />
        </mxCell>
        <mxCell id="ibCcVE-JZ-RD2QA-IbQj-14" value="" style="rounded=0;whiteSpace=wrap;html=1;" vertex="1" parent="ibCcVE-JZ-RD2QA-IbQj-12">
          <mxGeometry x="30" y="10" width="60" height="30" as="geometry" />
        </mxCell>
        <mxCell id="ibCcVE-JZ-RD2QA-IbQj-15" value="2" style="text;html=1;strokeColor=none;fillColor=none;align=center;verticalAlign=middle;whiteSpace=wrap;rounded=0;" vertex="1" parent="ibCcVE-JZ-RD2QA-IbQj-12">
          <mxGeometry x="30" y="10" width="60" height="30" as="geometry" />
        </mxCell>
        <mxCell id="ibCcVE-JZ-RD2QA-IbQj-16" value="&lt;div style=&quot;color: rgb(33, 33, 33); background-color: rgb(255, 255, 254); font-family: Consolas, &amp;quot;Courier New&amp;quot;, monospace; line-height: 16px;&quot;&gt;Светлогорск&lt;/div&gt;" style="text;html=1;strokeColor=none;fillColor=none;align=center;verticalAlign=middle;whiteSpace=wrap;rounded=0;" vertex="1" parent="ibCcVE-JZ-RD2QA-IbQj-12">
          <mxGeometry x="30" y="50" width="60" height="30" as="geometry" />
        </mxCell>
        <mxCell id="ibCcVE-JZ-RD2QA-IbQj-72" value="" style="endArrow=classic;html=1;rounded=0;exitX=0.5;exitY=1;exitDx=0;exitDy=0;entryX=0.5;entryY=0;entryDx=0;entryDy=0;" edge="1" parent="ibCcVE-JZ-RD2QA-IbQj-83" source="ibCcVE-JZ-RD2QA-IbQj-67" target="ibCcVE-JZ-RD2QA-IbQj-13">
          <mxGeometry width="50" height="50" relative="1" as="geometry">
            <mxPoint x="40" y="-80" as="sourcePoint" />
            <mxPoint x="90" y="-130" as="targetPoint" />
          </mxGeometry>
        </mxCell>
        <mxCell id="ibCcVE-JZ-RD2QA-IbQj-82" value="" style="group" vertex="1" connectable="0" parent="1">
          <mxGeometry x="240" y="160" width="120" height="100" as="geometry" />
        </mxCell>
        <mxCell id="ibCcVE-JZ-RD2QA-IbQj-6" value="" style="group" vertex="1" connectable="0" parent="ibCcVE-JZ-RD2QA-IbQj-82">
          <mxGeometry width="120" height="100" as="geometry" />
        </mxCell>
        <mxCell id="ibCcVE-JZ-RD2QA-IbQj-1" value="" style="rounded=0;whiteSpace=wrap;html=1;" vertex="1" parent="ibCcVE-JZ-RD2QA-IbQj-6">
          <mxGeometry width="120" height="100" as="geometry" />
        </mxCell>
        <mxCell id="ibCcVE-JZ-RD2QA-IbQj-2" value="" style="rounded=0;whiteSpace=wrap;html=1;" vertex="1" parent="ibCcVE-JZ-RD2QA-IbQj-6">
          <mxGeometry x="30" y="10" width="60" height="30" as="geometry" />
        </mxCell>
        <mxCell id="ibCcVE-JZ-RD2QA-IbQj-4" value="1" style="text;html=1;strokeColor=none;fillColor=none;align=center;verticalAlign=middle;whiteSpace=wrap;rounded=0;" vertex="1" parent="ibCcVE-JZ-RD2QA-IbQj-6">
          <mxGeometry x="30" y="10" width="60" height="30" as="geometry" />
        </mxCell>
        <mxCell id="ibCcVE-JZ-RD2QA-IbQj-5" value="&lt;div style=&quot;color: rgb(33, 33, 33); background-color: rgb(255, 255, 254); font-family: Consolas, &amp;quot;Courier New&amp;quot;, monospace; line-height: 16px;&quot;&gt;Гомель&lt;/div&gt;" style="text;html=1;strokeColor=none;fillColor=none;align=center;verticalAlign=middle;whiteSpace=wrap;rounded=0;" vertex="1" parent="ibCcVE-JZ-RD2QA-IbQj-6">
          <mxGeometry x="30" y="50" width="60" height="30" as="geometry" />
        </mxCell>
        <mxCell id="ibCcVE-JZ-RD2QA-IbQj-64" value="" style="endArrow=classic;html=1;rounded=0;exitX=1;exitY=0.5;exitDx=0;exitDy=0;entryX=0.25;entryY=0;entryDx=0;entryDy=0;" edge="1" parent="ibCcVE-JZ-RD2QA-IbQj-82" source="ibCcVE-JZ-RD2QA-IbQj-51" target="ibCcVE-JZ-RD2QA-IbQj-1">
          <mxGeometry width="50" height="50" relative="1" as="geometry">
            <mxPoint x="10" y="80" as="sourcePoint" />
            <mxPoint x="60" as="targetPoint" />
          </mxGeometry>
        </mxCell>
        <mxCell id="ibCcVE-JZ-RD2QA-IbQj-65" value="" style="endArrow=classic;html=1;rounded=0;exitX=0;exitY=0.5;exitDx=0;exitDy=0;entryX=0.75;entryY=0;entryDx=0;entryDy=0;" edge="1" parent="ibCcVE-JZ-RD2QA-IbQj-82" source="ibCcVE-JZ-RD2QA-IbQj-57" target="ibCcVE-JZ-RD2QA-IbQj-1">
          <mxGeometry width="50" height="50" relative="1" as="geometry">
            <mxPoint y="-50" as="sourcePoint" />
            <mxPoint x="70" y="10" as="targetPoint" />
          </mxGeometry>
        </mxCell>
        <mxCell id="ibCcVE-JZ-RD2QA-IbQj-85" value="" style="group" vertex="1" connectable="0" parent="1">
          <mxGeometry x="750" y="10" width="180" height="250" as="geometry" />
        </mxCell>
        <mxCell id="ibCcVE-JZ-RD2QA-IbQj-17" value="" style="group" vertex="1" connectable="0" parent="ibCcVE-JZ-RD2QA-IbQj-85">
          <mxGeometry y="150" width="120" height="100" as="geometry" />
        </mxCell>
        <mxCell id="ibCcVE-JZ-RD2QA-IbQj-18" value="" style="rounded=0;whiteSpace=wrap;html=1;" vertex="1" parent="ibCcVE-JZ-RD2QA-IbQj-17">
          <mxGeometry width="120" height="100" as="geometry" />
        </mxCell>
        <mxCell id="ibCcVE-JZ-RD2QA-IbQj-19" value="" style="rounded=0;whiteSpace=wrap;html=1;" vertex="1" parent="ibCcVE-JZ-RD2QA-IbQj-17">
          <mxGeometry x="30" y="10" width="60" height="30" as="geometry" />
        </mxCell>
        <mxCell id="ibCcVE-JZ-RD2QA-IbQj-20" value="3" style="text;html=1;strokeColor=none;fillColor=none;align=center;verticalAlign=middle;whiteSpace=wrap;rounded=0;" vertex="1" parent="ibCcVE-JZ-RD2QA-IbQj-17">
          <mxGeometry x="30" y="10" width="60" height="30" as="geometry" />
        </mxCell>
        <mxCell id="ibCcVE-JZ-RD2QA-IbQj-21" value="&lt;div style=&quot;color: rgb(33, 33, 33); background-color: rgb(255, 255, 254); font-family: Consolas, &amp;quot;Courier New&amp;quot;, monospace; line-height: 16px;&quot;&gt;Минск&lt;/div&gt;" style="text;html=1;strokeColor=none;fillColor=none;align=center;verticalAlign=middle;whiteSpace=wrap;rounded=0;" vertex="1" parent="ibCcVE-JZ-RD2QA-IbQj-17">
          <mxGeometry x="30" y="50" width="60" height="30" as="geometry" />
        </mxCell>
        <mxCell id="ibCcVE-JZ-RD2QA-IbQj-73" value="" style="group" vertex="1" connectable="0" parent="ibCcVE-JZ-RD2QA-IbQj-85">
          <mxGeometry x="-70" y="5" width="100" height="100" as="geometry" />
        </mxCell>
        <mxCell id="ibCcVE-JZ-RD2QA-IbQj-74" value="" style="ellipse;whiteSpace=wrap;html=1;" vertex="1" parent="ibCcVE-JZ-RD2QA-IbQj-73">
          <mxGeometry width="100" height="100" as="geometry" />
        </mxCell>
        <mxCell id="ibCcVE-JZ-RD2QA-IbQj-75" value="" style="ellipse;whiteSpace=wrap;html=1;" vertex="1" parent="ibCcVE-JZ-RD2QA-IbQj-73">
          <mxGeometry x="30" width="40" height="40" as="geometry" />
        </mxCell>
        <mxCell id="ibCcVE-JZ-RD2QA-IbQj-76" value="" style="group" vertex="1" connectable="0" parent="ibCcVE-JZ-RD2QA-IbQj-73">
          <mxGeometry x="20" y="12.5" width="60" height="67.5" as="geometry" />
        </mxCell>
        <mxCell id="ibCcVE-JZ-RD2QA-IbQj-77" value="9" style="text;html=1;strokeColor=none;fillColor=none;align=center;verticalAlign=middle;whiteSpace=wrap;rounded=0;" vertex="1" parent="ibCcVE-JZ-RD2QA-IbQj-76">
          <mxGeometry x="15" width="30" height="15" as="geometry" />
        </mxCell>
        <mxCell id="ibCcVE-JZ-RD2QA-IbQj-78" value="&lt;div style=&quot;color: rgb(33, 33, 33); background-color: rgb(255, 255, 254); font-family: Consolas, &amp;quot;Courier New&amp;quot;, monospace; line-height: 16px;&quot;&gt;&lt;div style=&quot;line-height: 16px;&quot;&gt;&lt;div style=&quot;line-height: 16px;&quot;&gt;&lt;div style=&quot;line-height: 16px;&quot;&gt;Фомин Фёдор&lt;/div&gt;&lt;/div&gt;&lt;/div&gt;&lt;/div&gt;" style="text;html=1;strokeColor=none;fillColor=none;align=center;verticalAlign=middle;whiteSpace=wrap;rounded=0;" vertex="1" parent="ibCcVE-JZ-RD2QA-IbQj-76">
          <mxGeometry y="40" width="60" height="27.5" as="geometry" />
        </mxCell>
        <mxCell id="ibCcVE-JZ-RD2QA-IbQj-79" value="" style="endArrow=classic;html=1;rounded=0;entryX=0.25;entryY=0;entryDx=0;entryDy=0;exitX=1;exitY=0.5;exitDx=0;exitDy=0;" edge="1" parent="ibCcVE-JZ-RD2QA-IbQj-85" source="ibCcVE-JZ-RD2QA-IbQj-74" target="ibCcVE-JZ-RD2QA-IbQj-18">
          <mxGeometry width="50" height="50" relative="1" as="geometry">
            <mxPoint x="-70" y="90" as="sourcePoint" />
            <mxPoint x="40" y="20" as="targetPoint" />
          </mxGeometry>
        </mxCell>
        <mxCell id="ibCcVE-JZ-RD2QA-IbQj-134" value="" style="endArrow=classic;html=1;rounded=0;entryX=0.712;entryY=0.002;entryDx=0;entryDy=0;exitX=0;exitY=0.5;exitDx=0;exitDy=0;entryPerimeter=0;" edge="1" parent="ibCcVE-JZ-RD2QA-IbQj-85" source="ibCcVE-JZ-RD2QA-IbQj-126" target="ibCcVE-JZ-RD2QA-IbQj-18">
          <mxGeometry width="50" height="50" relative="1" as="geometry">
            <mxPoint x="86" y="45" as="sourcePoint" />
            <mxPoint x="86" y="140" as="targetPoint" />
          </mxGeometry>
        </mxCell>
        <mxCell id="ibCcVE-JZ-RD2QA-IbQj-125" value="" style="group" vertex="1" connectable="0" parent="ibCcVE-JZ-RD2QA-IbQj-85">
          <mxGeometry x="87" y="-35" width="100" height="100" as="geometry" />
        </mxCell>
        <mxCell id="ibCcVE-JZ-RD2QA-IbQj-126" value="" style="ellipse;whiteSpace=wrap;html=1;" vertex="1" parent="ibCcVE-JZ-RD2QA-IbQj-125">
          <mxGeometry width="100" height="100" as="geometry" />
        </mxCell>
        <mxCell id="ibCcVE-JZ-RD2QA-IbQj-127" value="" style="ellipse;whiteSpace=wrap;html=1;" vertex="1" parent="ibCcVE-JZ-RD2QA-IbQj-125">
          <mxGeometry x="30" width="40" height="40" as="geometry" />
        </mxCell>
        <mxCell id="ibCcVE-JZ-RD2QA-IbQj-128" value="" style="group" vertex="1" connectable="0" parent="ibCcVE-JZ-RD2QA-IbQj-125">
          <mxGeometry x="20" y="12.5" width="60" height="67.5" as="geometry" />
        </mxCell>
        <mxCell id="ibCcVE-JZ-RD2QA-IbQj-129" value="15" style="text;html=1;strokeColor=none;fillColor=none;align=center;verticalAlign=middle;whiteSpace=wrap;rounded=0;" vertex="1" parent="ibCcVE-JZ-RD2QA-IbQj-128">
          <mxGeometry x="15" width="30" height="15" as="geometry" />
        </mxCell>
        <mxCell id="ibCcVE-JZ-RD2QA-IbQj-130" value="&lt;div style=&quot;color: rgb(33, 33, 33); background-color: rgb(255, 255, 254); font-family: Consolas, &amp;quot;Courier New&amp;quot;, monospace; line-height: 16px;&quot;&gt;&lt;div style=&quot;line-height: 16px;&quot;&gt;&lt;div style=&quot;line-height: 16px;&quot;&gt;Грин Захар&lt;/div&gt;&lt;/div&gt;&lt;/div&gt;" style="text;html=1;strokeColor=none;fillColor=none;align=center;verticalAlign=middle;whiteSpace=wrap;rounded=0;" vertex="1" parent="ibCcVE-JZ-RD2QA-IbQj-128">
          <mxGeometry y="37.5" width="60" height="30" as="geometry" />
        </mxCell>
        <mxCell id="ibCcVE-JZ-RD2QA-IbQj-87" value="" style="group" vertex="1" connectable="0" parent="1">
          <mxGeometry x="60" y="290" width="120" height="250" as="geometry" />
        </mxCell>
        <mxCell id="ibCcVE-JZ-RD2QA-IbQj-88" value="" style="group" vertex="1" connectable="0" parent="ibCcVE-JZ-RD2QA-IbQj-87">
          <mxGeometry y="150" width="120" height="100" as="geometry" />
        </mxCell>
        <mxCell id="ibCcVE-JZ-RD2QA-IbQj-89" value="" style="rounded=0;whiteSpace=wrap;html=1;" vertex="1" parent="ibCcVE-JZ-RD2QA-IbQj-88">
          <mxGeometry width="120" height="100" as="geometry" />
        </mxCell>
        <mxCell id="ibCcVE-JZ-RD2QA-IbQj-90" value="" style="rounded=0;whiteSpace=wrap;html=1;" vertex="1" parent="ibCcVE-JZ-RD2QA-IbQj-88">
          <mxGeometry x="30" y="10" width="60" height="30" as="geometry" />
        </mxCell>
        <mxCell id="ibCcVE-JZ-RD2QA-IbQj-91" value="4" style="text;html=1;strokeColor=none;fillColor=none;align=center;verticalAlign=middle;whiteSpace=wrap;rounded=0;" vertex="1" parent="ibCcVE-JZ-RD2QA-IbQj-88">
          <mxGeometry x="30" y="10" width="60" height="30" as="geometry" />
        </mxCell>
        <mxCell id="ibCcVE-JZ-RD2QA-IbQj-92" value="&lt;div style=&quot;color: rgb(33, 33, 33); background-color: rgb(255, 255, 254); font-family: Consolas, &amp;quot;Courier New&amp;quot;, monospace; line-height: 16px;&quot;&gt;&lt;div style=&quot;line-height: 16px;&quot;&gt;Полоцк&lt;/div&gt;&lt;/div&gt;" style="text;html=1;strokeColor=none;fillColor=none;align=center;verticalAlign=middle;whiteSpace=wrap;rounded=0;" vertex="1" parent="ibCcVE-JZ-RD2QA-IbQj-88">
          <mxGeometry x="30" y="50" width="60" height="30" as="geometry" />
        </mxCell>
        <mxCell id="ibCcVE-JZ-RD2QA-IbQj-99" value="" style="endArrow=classic;html=1;rounded=0;entryX=0.5;entryY=0;entryDx=0;entryDy=0;exitX=0.5;exitY=1;exitDx=0;exitDy=0;" edge="1" parent="ibCcVE-JZ-RD2QA-IbQj-87" target="ibCcVE-JZ-RD2QA-IbQj-89">
          <mxGeometry width="50" height="50" relative="1" as="geometry">
            <mxPoint x="60" y="100" as="sourcePoint" />
            <mxPoint x="40" y="20" as="targetPoint" />
          </mxGeometry>
        </mxCell>
        <mxCell id="ibCcVE-JZ-RD2QA-IbQj-101" value="" style="group" vertex="1" connectable="0" parent="1">
          <mxGeometry x="70" y="290" width="100" height="100" as="geometry" />
        </mxCell>
        <mxCell id="ibCcVE-JZ-RD2QA-IbQj-102" value="" style="ellipse;whiteSpace=wrap;html=1;" vertex="1" parent="ibCcVE-JZ-RD2QA-IbQj-101">
          <mxGeometry width="100" height="100" as="geometry" />
        </mxCell>
        <mxCell id="ibCcVE-JZ-RD2QA-IbQj-103" value="" style="ellipse;whiteSpace=wrap;html=1;" vertex="1" parent="ibCcVE-JZ-RD2QA-IbQj-101">
          <mxGeometry x="30" width="40" height="40" as="geometry" />
        </mxCell>
        <mxCell id="ibCcVE-JZ-RD2QA-IbQj-104" value="" style="group" vertex="1" connectable="0" parent="ibCcVE-JZ-RD2QA-IbQj-101">
          <mxGeometry x="20" y="12.5" width="60" height="67.5" as="geometry" />
        </mxCell>
        <mxCell id="ibCcVE-JZ-RD2QA-IbQj-105" value="8" style="text;html=1;strokeColor=none;fillColor=none;align=center;verticalAlign=middle;whiteSpace=wrap;rounded=0;" vertex="1" parent="ibCcVE-JZ-RD2QA-IbQj-104">
          <mxGeometry x="15" width="30" height="15" as="geometry" />
        </mxCell>
        <mxCell id="ibCcVE-JZ-RD2QA-IbQj-106" value="&lt;div style=&quot;color: rgb(33, 33, 33); background-color: rgb(255, 255, 254); font-family: Consolas, &amp;quot;Courier New&amp;quot;, monospace; line-height: 16px;&quot;&gt;&lt;div style=&quot;line-height: 16px;&quot;&gt;&lt;div style=&quot;line-height: 16px;&quot;&gt;&lt;div style=&quot;line-height: 16px;&quot;&gt;Авдеева Анастасия&lt;/div&gt;&lt;/div&gt;&lt;/div&gt;&lt;/div&gt;" style="text;html=1;strokeColor=none;fillColor=none;align=center;verticalAlign=middle;whiteSpace=wrap;rounded=0;" vertex="1" parent="ibCcVE-JZ-RD2QA-IbQj-104">
          <mxGeometry y="37.5" width="60" height="30" as="geometry" />
        </mxCell>
        <mxCell id="ibCcVE-JZ-RD2QA-IbQj-113" value="" style="group" vertex="1" connectable="0" parent="1">
          <mxGeometry x="220" y="440" width="120" height="100" as="geometry" />
        </mxCell>
        <mxCell id="ibCcVE-JZ-RD2QA-IbQj-114" value="" style="rounded=0;whiteSpace=wrap;html=1;" vertex="1" parent="ibCcVE-JZ-RD2QA-IbQj-113">
          <mxGeometry width="120" height="100" as="geometry" />
        </mxCell>
        <mxCell id="ibCcVE-JZ-RD2QA-IbQj-115" value="" style="rounded=0;whiteSpace=wrap;html=1;" vertex="1" parent="ibCcVE-JZ-RD2QA-IbQj-113">
          <mxGeometry x="30" y="10" width="60" height="30" as="geometry" />
        </mxCell>
        <mxCell id="ibCcVE-JZ-RD2QA-IbQj-116" value="5" style="text;html=1;strokeColor=none;fillColor=none;align=center;verticalAlign=middle;whiteSpace=wrap;rounded=0;" vertex="1" parent="ibCcVE-JZ-RD2QA-IbQj-113">
          <mxGeometry x="30" y="10" width="60" height="30" as="geometry" />
        </mxCell>
        <mxCell id="ibCcVE-JZ-RD2QA-IbQj-117" value="&lt;div style=&quot;color: rgb(33, 33, 33); background-color: rgb(255, 255, 254); font-family: Consolas, &amp;quot;Courier New&amp;quot;, monospace; line-height: 16px;&quot;&gt;&lt;div style=&quot;line-height: 16px;&quot;&gt;&lt;div style=&quot;line-height: 16px;&quot;&gt;Браслав&lt;/div&gt;&lt;/div&gt;&lt;/div&gt;" style="text;html=1;strokeColor=none;fillColor=none;align=center;verticalAlign=middle;whiteSpace=wrap;rounded=0;" vertex="1" parent="ibCcVE-JZ-RD2QA-IbQj-113">
          <mxGeometry x="30" y="50" width="60" height="30" as="geometry" />
        </mxCell>
        <mxCell id="ibCcVE-JZ-RD2QA-IbQj-118" value="" style="group" vertex="1" connectable="0" parent="1">
          <mxGeometry x="230" y="290" width="100" height="100" as="geometry" />
        </mxCell>
        <mxCell id="ibCcVE-JZ-RD2QA-IbQj-119" value="" style="ellipse;whiteSpace=wrap;html=1;" vertex="1" parent="ibCcVE-JZ-RD2QA-IbQj-118">
          <mxGeometry width="100" height="100" as="geometry" />
        </mxCell>
        <mxCell id="ibCcVE-JZ-RD2QA-IbQj-120" value="" style="ellipse;whiteSpace=wrap;html=1;" vertex="1" parent="ibCcVE-JZ-RD2QA-IbQj-118">
          <mxGeometry x="30" width="40" height="40" as="geometry" />
        </mxCell>
        <mxCell id="ibCcVE-JZ-RD2QA-IbQj-121" value="" style="group" vertex="1" connectable="0" parent="ibCcVE-JZ-RD2QA-IbQj-118">
          <mxGeometry x="20" y="12.5" width="60" height="67.5" as="geometry" />
        </mxCell>
        <mxCell id="ibCcVE-JZ-RD2QA-IbQj-122" value="5" style="text;html=1;strokeColor=none;fillColor=none;align=center;verticalAlign=middle;whiteSpace=wrap;rounded=0;" vertex="1" parent="ibCcVE-JZ-RD2QA-IbQj-121">
          <mxGeometry x="15" width="30" height="15" as="geometry" />
        </mxCell>
        <mxCell id="ibCcVE-JZ-RD2QA-IbQj-123" value="&lt;div style=&quot;color: rgb(33, 33, 33); background-color: rgb(255, 255, 254); font-family: Consolas, &amp;quot;Courier New&amp;quot;, monospace; line-height: 16px;&quot;&gt;&lt;div style=&quot;line-height: 16px;&quot;&gt;&lt;div style=&quot;line-height: 16px;&quot;&gt;&lt;div style=&quot;line-height: 16px;&quot;&gt;Федоров Константин&lt;/div&gt;&lt;/div&gt;&lt;/div&gt;&lt;/div&gt;" style="text;html=1;strokeColor=none;fillColor=none;align=center;verticalAlign=middle;whiteSpace=wrap;rounded=0;" vertex="1" parent="ibCcVE-JZ-RD2QA-IbQj-121">
          <mxGeometry y="37.5" width="60" height="30" as="geometry" />
        </mxCell>
        <mxCell id="ibCcVE-JZ-RD2QA-IbQj-124" style="edgeStyle=orthogonalEdgeStyle;rounded=0;orthogonalLoop=1;jettySize=auto;html=1;exitX=0.5;exitY=1;exitDx=0;exitDy=0;entryX=0.5;entryY=0;entryDx=0;entryDy=0;" edge="1" parent="1" source="ibCcVE-JZ-RD2QA-IbQj-119" target="ibCcVE-JZ-RD2QA-IbQj-114">
          <mxGeometry relative="1" as="geometry" />
        </mxCell>
        <mxCell id="ibCcVE-JZ-RD2QA-IbQj-154" value="" style="group" vertex="1" connectable="0" parent="1">
          <mxGeometry x="560" y="380" width="220" height="220" as="geometry" />
        </mxCell>
        <mxCell id="ibCcVE-JZ-RD2QA-IbQj-27" value="" style="group" vertex="1" connectable="0" parent="ibCcVE-JZ-RD2QA-IbQj-154">
          <mxGeometry x="40" y="120" width="120" height="100" as="geometry" />
        </mxCell>
        <mxCell id="ibCcVE-JZ-RD2QA-IbQj-28" value="" style="rounded=0;whiteSpace=wrap;html=1;" vertex="1" parent="ibCcVE-JZ-RD2QA-IbQj-27">
          <mxGeometry width="120" height="100" as="geometry" />
        </mxCell>
        <mxCell id="ibCcVE-JZ-RD2QA-IbQj-29" value="" style="rounded=0;whiteSpace=wrap;html=1;" vertex="1" parent="ibCcVE-JZ-RD2QA-IbQj-27">
          <mxGeometry x="30" y="10" width="60" height="30" as="geometry" />
        </mxCell>
        <mxCell id="ibCcVE-JZ-RD2QA-IbQj-30" value="6" style="text;html=1;strokeColor=none;fillColor=none;align=center;verticalAlign=middle;whiteSpace=wrap;rounded=0;" vertex="1" parent="ibCcVE-JZ-RD2QA-IbQj-27">
          <mxGeometry x="30" y="10" width="60" height="30" as="geometry" />
        </mxCell>
        <mxCell id="ibCcVE-JZ-RD2QA-IbQj-31" value="&lt;div style=&quot;color: rgb(33, 33, 33); background-color: rgb(255, 255, 254); font-family: Consolas, &amp;quot;Courier New&amp;quot;, monospace; line-height: 16px;&quot;&gt;Могилев&lt;/div&gt;" style="text;html=1;strokeColor=none;fillColor=none;align=center;verticalAlign=middle;whiteSpace=wrap;rounded=0;" vertex="1" parent="ibCcVE-JZ-RD2QA-IbQj-27">
          <mxGeometry x="30" y="50" width="60" height="30" as="geometry" />
        </mxCell>
        <mxCell id="ibCcVE-JZ-RD2QA-IbQj-163" value="" style="endArrow=classic;html=1;rounded=0;exitX=0;exitY=0.5;exitDx=0;exitDy=0;entryX=0.75;entryY=0;entryDx=0;entryDy=0;" edge="1" parent="ibCcVE-JZ-RD2QA-IbQj-154">
          <mxGeometry width="50" height="50" relative="1" as="geometry">
            <mxPoint x="70" as="sourcePoint" />
            <mxPoint x="70" y="120" as="targetPoint" />
          </mxGeometry>
        </mxCell>
        <mxCell id="ibCcVE-JZ-RD2QA-IbQj-148" value="" style="group" vertex="1" connectable="0" parent="1">
          <mxGeometry x="530" y="330" width="100" height="100" as="geometry" />
        </mxCell>
        <mxCell id="ibCcVE-JZ-RD2QA-IbQj-149" value="" style="ellipse;whiteSpace=wrap;html=1;" vertex="1" parent="ibCcVE-JZ-RD2QA-IbQj-148">
          <mxGeometry width="100" height="100" as="geometry" />
        </mxCell>
        <mxCell id="ibCcVE-JZ-RD2QA-IbQj-150" value="" style="ellipse;whiteSpace=wrap;html=1;" vertex="1" parent="ibCcVE-JZ-RD2QA-IbQj-148">
          <mxGeometry x="30" width="40" height="40" as="geometry" />
        </mxCell>
        <mxCell id="ibCcVE-JZ-RD2QA-IbQj-151" value="" style="group" vertex="1" connectable="0" parent="ibCcVE-JZ-RD2QA-IbQj-148">
          <mxGeometry x="20" y="12.5" width="60" height="67.5" as="geometry" />
        </mxCell>
        <mxCell id="ibCcVE-JZ-RD2QA-IbQj-152" value="13" style="text;html=1;strokeColor=none;fillColor=none;align=center;verticalAlign=middle;whiteSpace=wrap;rounded=0;" vertex="1" parent="ibCcVE-JZ-RD2QA-IbQj-151">
          <mxGeometry x="15" width="30" height="15" as="geometry" />
        </mxCell>
        <mxCell id="ibCcVE-JZ-RD2QA-IbQj-153" value="&lt;div style=&quot;color: rgb(33, 33, 33); background-color: rgb(255, 255, 254); font-family: Consolas, &amp;quot;Courier New&amp;quot;, monospace; line-height: 16px;&quot;&gt;&lt;div style=&quot;line-height: 16px;&quot;&gt;&lt;div style=&quot;line-height: 16px;&quot;&gt;Лесун Иван&lt;/div&gt;&lt;/div&gt;&lt;/div&gt;" style="text;html=1;strokeColor=none;fillColor=none;align=center;verticalAlign=middle;whiteSpace=wrap;rounded=0;" vertex="1" parent="ibCcVE-JZ-RD2QA-IbQj-151">
          <mxGeometry y="37.5" width="60" height="30" as="geometry" />
        </mxCell>
        <mxCell id="ibCcVE-JZ-RD2QA-IbQj-141" value="" style="group" vertex="1" connectable="0" parent="1">
          <mxGeometry x="690" y="330" width="100" height="100" as="geometry" />
        </mxCell>
        <mxCell id="ibCcVE-JZ-RD2QA-IbQj-142" value="" style="ellipse;whiteSpace=wrap;html=1;" vertex="1" parent="ibCcVE-JZ-RD2QA-IbQj-141">
          <mxGeometry width="100" height="100" as="geometry" />
        </mxCell>
        <mxCell id="ibCcVE-JZ-RD2QA-IbQj-143" value="" style="ellipse;whiteSpace=wrap;html=1;" vertex="1" parent="ibCcVE-JZ-RD2QA-IbQj-141">
          <mxGeometry x="30" width="40" height="40" as="geometry" />
        </mxCell>
        <mxCell id="ibCcVE-JZ-RD2QA-IbQj-144" value="" style="group" vertex="1" connectable="0" parent="ibCcVE-JZ-RD2QA-IbQj-141">
          <mxGeometry x="20" y="12.5" width="60" height="67.5" as="geometry" />
        </mxCell>
        <mxCell id="ibCcVE-JZ-RD2QA-IbQj-145" value="14" style="text;html=1;strokeColor=none;fillColor=none;align=center;verticalAlign=middle;whiteSpace=wrap;rounded=0;" vertex="1" parent="ibCcVE-JZ-RD2QA-IbQj-144">
          <mxGeometry x="15" width="30" height="15" as="geometry" />
        </mxCell>
        <mxCell id="ibCcVE-JZ-RD2QA-IbQj-146" value="&lt;div style=&quot;color: rgb(33, 33, 33); background-color: rgb(255, 255, 254); font-family: Consolas, &amp;quot;Courier New&amp;quot;, monospace; line-height: 16px;&quot;&gt;&lt;div style=&quot;line-height: 16px;&quot;&gt;&lt;div style=&quot;line-height: 16px;&quot;&gt;Гринько Кирилл&lt;/div&gt;&lt;/div&gt;&lt;/div&gt;" style="text;html=1;strokeColor=none;fillColor=none;align=center;verticalAlign=middle;whiteSpace=wrap;rounded=0;" vertex="1" parent="ibCcVE-JZ-RD2QA-IbQj-144">
          <mxGeometry y="37.5" width="60" height="30" as="geometry" />
        </mxCell>
        <mxCell id="ibCcVE-JZ-RD2QA-IbQj-162" value="" style="endArrow=classic;html=1;rounded=0;exitX=0;exitY=0.5;exitDx=0;exitDy=0;entryX=0.75;entryY=0;entryDx=0;entryDy=0;" edge="1" parent="1" source="ibCcVE-JZ-RD2QA-IbQj-142" target="ibCcVE-JZ-RD2QA-IbQj-28">
          <mxGeometry width="50" height="50" relative="1" as="geometry">
            <mxPoint x="880" y="570" as="sourcePoint" />
            <mxPoint x="670" y="490" as="targetPoint" />
          </mxGeometry>
        </mxCell>
        <mxCell id="ibCcVE-JZ-RD2QA-IbQj-171" value="" style="group" vertex="1" connectable="0" parent="1">
          <mxGeometry x="50" y="810" width="120" height="100" as="geometry" />
        </mxCell>
        <mxCell id="ibCcVE-JZ-RD2QA-IbQj-172" value="" style="rounded=0;whiteSpace=wrap;html=1;" vertex="1" parent="ibCcVE-JZ-RD2QA-IbQj-171">
          <mxGeometry width="120" height="100" as="geometry" />
        </mxCell>
        <mxCell id="ibCcVE-JZ-RD2QA-IbQj-173" value="" style="rounded=0;whiteSpace=wrap;html=1;" vertex="1" parent="ibCcVE-JZ-RD2QA-IbQj-171">
          <mxGeometry x="30" y="10" width="60" height="30" as="geometry" />
        </mxCell>
        <mxCell id="ibCcVE-JZ-RD2QA-IbQj-174" value="8" style="text;html=1;strokeColor=none;fillColor=none;align=center;verticalAlign=middle;whiteSpace=wrap;rounded=0;" vertex="1" parent="ibCcVE-JZ-RD2QA-IbQj-171">
          <mxGeometry x="30" y="10" width="60" height="30" as="geometry" />
        </mxCell>
        <mxCell id="ibCcVE-JZ-RD2QA-IbQj-175" value="&lt;div style=&quot;color: rgb(33, 33, 33); background-color: rgb(255, 255, 254); font-family: Consolas, &amp;quot;Courier New&amp;quot;, monospace; line-height: 16px;&quot;&gt;&lt;div style=&quot;line-height: 16px;&quot;&gt;Орша&lt;/div&gt;&lt;/div&gt;" style="text;html=1;strokeColor=none;fillColor=none;align=center;verticalAlign=middle;whiteSpace=wrap;rounded=0;" vertex="1" parent="ibCcVE-JZ-RD2QA-IbQj-171">
          <mxGeometry x="30" y="50" width="60" height="30" as="geometry" />
        </mxCell>
        <mxCell id="ibCcVE-JZ-RD2QA-IbQj-176" value="" style="group" vertex="1" connectable="0" parent="1">
          <mxGeometry x="600" y="800" width="120" height="100" as="geometry" />
        </mxCell>
        <mxCell id="ibCcVE-JZ-RD2QA-IbQj-177" value="" style="rounded=0;whiteSpace=wrap;html=1;" vertex="1" parent="ibCcVE-JZ-RD2QA-IbQj-176">
          <mxGeometry width="120" height="100" as="geometry" />
        </mxCell>
        <mxCell id="ibCcVE-JZ-RD2QA-IbQj-178" value="" style="rounded=0;whiteSpace=wrap;html=1;" vertex="1" parent="ibCcVE-JZ-RD2QA-IbQj-176">
          <mxGeometry x="30" y="10" width="60" height="30" as="geometry" />
        </mxCell>
        <mxCell id="ibCcVE-JZ-RD2QA-IbQj-179" value="10" style="text;html=1;strokeColor=none;fillColor=none;align=center;verticalAlign=middle;whiteSpace=wrap;rounded=0;" vertex="1" parent="ibCcVE-JZ-RD2QA-IbQj-176">
          <mxGeometry x="30" y="10" width="60" height="30" as="geometry" />
        </mxCell>
        <mxCell id="ibCcVE-JZ-RD2QA-IbQj-180" value="&lt;div style=&quot;color: rgb(33, 33, 33); background-color: rgb(255, 255, 254); font-family: Consolas, &amp;quot;Courier New&amp;quot;, monospace; line-height: 16px;&quot;&gt;&lt;div style=&quot;line-height: 16px;&quot;&gt;Рогачев&lt;/div&gt;&lt;/div&gt;" style="text;html=1;strokeColor=none;fillColor=none;align=center;verticalAlign=middle;whiteSpace=wrap;rounded=0;" vertex="1" parent="ibCcVE-JZ-RD2QA-IbQj-176">
          <mxGeometry x="30" y="50" width="60" height="30" as="geometry" />
        </mxCell>
        <mxCell id="ibCcVE-JZ-RD2QA-IbQj-181" value="" style="group" vertex="1" connectable="0" parent="1">
          <mxGeometry x="320" y="810" width="120" height="100" as="geometry" />
        </mxCell>
        <mxCell id="ibCcVE-JZ-RD2QA-IbQj-182" value="" style="rounded=0;whiteSpace=wrap;html=1;" vertex="1" parent="ibCcVE-JZ-RD2QA-IbQj-181">
          <mxGeometry width="120" height="100" as="geometry" />
        </mxCell>
        <mxCell id="ibCcVE-JZ-RD2QA-IbQj-183" value="" style="rounded=0;whiteSpace=wrap;html=1;" vertex="1" parent="ibCcVE-JZ-RD2QA-IbQj-181">
          <mxGeometry x="30" y="10" width="60" height="30" as="geometry" />
        </mxCell>
        <mxCell id="ibCcVE-JZ-RD2QA-IbQj-184" value="9" style="text;html=1;strokeColor=none;fillColor=none;align=center;verticalAlign=middle;whiteSpace=wrap;rounded=0;" vertex="1" parent="ibCcVE-JZ-RD2QA-IbQj-181">
          <mxGeometry x="30" y="10" width="60" height="30" as="geometry" />
        </mxCell>
        <mxCell id="ibCcVE-JZ-RD2QA-IbQj-185" value="&lt;div style=&quot;color: rgb(33, 33, 33); background-color: rgb(255, 255, 254); font-family: Consolas, &amp;quot;Courier New&amp;quot;, monospace; line-height: 16px;&quot;&gt;&lt;div style=&quot;line-height: 16px;&quot;&gt;Гродно&lt;/div&gt;&lt;/div&gt;" style="text;html=1;strokeColor=none;fillColor=none;align=center;verticalAlign=middle;whiteSpace=wrap;rounded=0;" vertex="1" parent="ibCcVE-JZ-RD2QA-IbQj-181">
          <mxGeometry x="30" y="50" width="60" height="30" as="geometry" />
        </mxCell>
        <mxCell id="ibCcVE-JZ-RD2QA-IbQj-212" value="" style="group" vertex="1" connectable="0" parent="1">
          <mxGeometry x="920" y="330" width="340" height="280" as="geometry" />
        </mxCell>
        <mxCell id="ibCcVE-JZ-RD2QA-IbQj-165" value="" style="group" vertex="1" connectable="0" parent="ibCcVE-JZ-RD2QA-IbQj-212">
          <mxGeometry x="110" y="180" width="120" height="100" as="geometry" />
        </mxCell>
        <mxCell id="ibCcVE-JZ-RD2QA-IbQj-166" value="" style="rounded=0;whiteSpace=wrap;html=1;" vertex="1" parent="ibCcVE-JZ-RD2QA-IbQj-165">
          <mxGeometry width="120" height="100" as="geometry" />
        </mxCell>
        <mxCell id="ibCcVE-JZ-RD2QA-IbQj-167" value="" style="rounded=0;whiteSpace=wrap;html=1;" vertex="1" parent="ibCcVE-JZ-RD2QA-IbQj-165">
          <mxGeometry x="30" y="10" width="60" height="30" as="geometry" />
        </mxCell>
        <mxCell id="ibCcVE-JZ-RD2QA-IbQj-168" value="7" style="text;html=1;strokeColor=none;fillColor=none;align=center;verticalAlign=middle;whiteSpace=wrap;rounded=0;" vertex="1" parent="ibCcVE-JZ-RD2QA-IbQj-165">
          <mxGeometry x="30" y="10" width="60" height="30" as="geometry" />
        </mxCell>
        <mxCell id="ibCcVE-JZ-RD2QA-IbQj-169" value="&lt;div style=&quot;color: rgb(33, 33, 33); background-color: rgb(255, 255, 254); font-family: Consolas, &amp;quot;Courier New&amp;quot;, monospace; line-height: 16px;&quot;&gt;&lt;div style=&quot;line-height: 16px;&quot;&gt;Брест&lt;/div&gt;&lt;/div&gt;" style="text;html=1;strokeColor=none;fillColor=none;align=center;verticalAlign=middle;whiteSpace=wrap;rounded=0;" vertex="1" parent="ibCcVE-JZ-RD2QA-IbQj-165">
          <mxGeometry x="30" y="50" width="60" height="30" as="geometry" />
        </mxCell>
        <mxCell id="ibCcVE-JZ-RD2QA-IbQj-187" value="" style="group" vertex="1" connectable="0" parent="ibCcVE-JZ-RD2QA-IbQj-212">
          <mxGeometry width="100" height="100" as="geometry" />
        </mxCell>
        <mxCell id="ibCcVE-JZ-RD2QA-IbQj-188" value="" style="ellipse;whiteSpace=wrap;html=1;" vertex="1" parent="ibCcVE-JZ-RD2QA-IbQj-187">
          <mxGeometry width="100" height="100" as="geometry" />
        </mxCell>
        <mxCell id="ibCcVE-JZ-RD2QA-IbQj-189" value="" style="ellipse;whiteSpace=wrap;html=1;" vertex="1" parent="ibCcVE-JZ-RD2QA-IbQj-187">
          <mxGeometry x="30" width="40" height="40" as="geometry" />
        </mxCell>
        <mxCell id="ibCcVE-JZ-RD2QA-IbQj-190" value="" style="group" vertex="1" connectable="0" parent="ibCcVE-JZ-RD2QA-IbQj-187">
          <mxGeometry x="20" y="12.5" width="60" height="67.5" as="geometry" />
        </mxCell>
        <mxCell id="ibCcVE-JZ-RD2QA-IbQj-191" value="3" style="text;html=1;strokeColor=none;fillColor=none;align=center;verticalAlign=middle;whiteSpace=wrap;rounded=0;" vertex="1" parent="ibCcVE-JZ-RD2QA-IbQj-190">
          <mxGeometry x="15" width="30" height="15" as="geometry" />
        </mxCell>
        <mxCell id="ibCcVE-JZ-RD2QA-IbQj-192" value="&lt;div style=&quot;color: rgb(33, 33, 33); background-color: rgb(255, 255, 254); font-family: Consolas, &amp;quot;Courier New&amp;quot;, monospace; line-height: 16px;&quot;&gt;&lt;div style=&quot;line-height: 16px;&quot;&gt;&lt;div style=&quot;line-height: 16px;&quot;&gt;Григорьева Мария&lt;/div&gt;&lt;/div&gt;&lt;/div&gt;" style="text;html=1;strokeColor=none;fillColor=none;align=center;verticalAlign=middle;whiteSpace=wrap;rounded=0;" vertex="1" parent="ibCcVE-JZ-RD2QA-IbQj-190">
          <mxGeometry y="37.5" width="60" height="30" as="geometry" />
        </mxCell>
        <mxCell id="ibCcVE-JZ-RD2QA-IbQj-193" value="" style="group" vertex="1" connectable="0" parent="ibCcVE-JZ-RD2QA-IbQj-212">
          <mxGeometry x="120" width="100" height="100" as="geometry" />
        </mxCell>
        <mxCell id="ibCcVE-JZ-RD2QA-IbQj-194" value="" style="ellipse;whiteSpace=wrap;html=1;" vertex="1" parent="ibCcVE-JZ-RD2QA-IbQj-193">
          <mxGeometry width="100" height="100" as="geometry" />
        </mxCell>
        <mxCell id="ibCcVE-JZ-RD2QA-IbQj-195" value="" style="ellipse;whiteSpace=wrap;html=1;" vertex="1" parent="ibCcVE-JZ-RD2QA-IbQj-193">
          <mxGeometry x="30" width="40" height="40" as="geometry" />
        </mxCell>
        <mxCell id="ibCcVE-JZ-RD2QA-IbQj-196" value="" style="group" vertex="1" connectable="0" parent="ibCcVE-JZ-RD2QA-IbQj-193">
          <mxGeometry x="20" y="12.5" width="60" height="67.5" as="geometry" />
        </mxCell>
        <mxCell id="ibCcVE-JZ-RD2QA-IbQj-197" value="4" style="text;html=1;strokeColor=none;fillColor=none;align=center;verticalAlign=middle;whiteSpace=wrap;rounded=0;" vertex="1" parent="ibCcVE-JZ-RD2QA-IbQj-196">
          <mxGeometry x="15" width="30" height="15" as="geometry" />
        </mxCell>
        <mxCell id="ibCcVE-JZ-RD2QA-IbQj-198" value="&lt;div style=&quot;color: rgb(33, 33, 33); background-color: rgb(255, 255, 254); font-family: Consolas, &amp;quot;Courier New&amp;quot;, monospace; line-height: 16px;&quot;&gt;&lt;div style=&quot;line-height: 16px;&quot;&gt;&lt;div style=&quot;line-height: 16px;&quot;&gt;&lt;div style=&quot;line-height: 16px;&quot;&gt;Фомин Иван&lt;/div&gt;&lt;/div&gt;&lt;/div&gt;&lt;/div&gt;" style="text;html=1;strokeColor=none;fillColor=none;align=center;verticalAlign=middle;whiteSpace=wrap;rounded=0;" vertex="1" parent="ibCcVE-JZ-RD2QA-IbQj-196">
          <mxGeometry y="40" width="60" height="27.5" as="geometry" />
        </mxCell>
        <mxCell id="ibCcVE-JZ-RD2QA-IbQj-199" value="" style="group" vertex="1" connectable="0" parent="ibCcVE-JZ-RD2QA-IbQj-212">
          <mxGeometry x="240" width="100" height="100" as="geometry" />
        </mxCell>
        <mxCell id="ibCcVE-JZ-RD2QA-IbQj-200" value="" style="ellipse;whiteSpace=wrap;html=1;" vertex="1" parent="ibCcVE-JZ-RD2QA-IbQj-199">
          <mxGeometry width="100" height="100" as="geometry" />
        </mxCell>
        <mxCell id="ibCcVE-JZ-RD2QA-IbQj-201" value="" style="ellipse;whiteSpace=wrap;html=1;" vertex="1" parent="ibCcVE-JZ-RD2QA-IbQj-199">
          <mxGeometry x="30" width="40" height="40" as="geometry" />
        </mxCell>
        <mxCell id="ibCcVE-JZ-RD2QA-IbQj-202" value="" style="group" vertex="1" connectable="0" parent="ibCcVE-JZ-RD2QA-IbQj-199">
          <mxGeometry x="20" y="12.5" width="60" height="67.5" as="geometry" />
        </mxCell>
        <mxCell id="ibCcVE-JZ-RD2QA-IbQj-203" value="7" style="text;html=1;strokeColor=none;fillColor=none;align=center;verticalAlign=middle;whiteSpace=wrap;rounded=0;" vertex="1" parent="ibCcVE-JZ-RD2QA-IbQj-202">
          <mxGeometry x="15" width="30" height="15" as="geometry" />
        </mxCell>
        <mxCell id="ibCcVE-JZ-RD2QA-IbQj-204" value="&lt;div style=&quot;color: rgb(33, 33, 33); background-color: rgb(255, 255, 254); font-family: Consolas, &amp;quot;Courier New&amp;quot;, monospace; line-height: 16px;&quot;&gt;&lt;div style=&quot;line-height: 16px;&quot;&gt;&lt;div style=&quot;line-height: 16px;&quot;&gt;&lt;div style=&quot;line-height: 16px;&quot;&gt;Ильинская Мария&lt;/div&gt;&lt;/div&gt;&lt;/div&gt;&lt;/div&gt;" style="text;html=1;strokeColor=none;fillColor=none;align=center;verticalAlign=middle;whiteSpace=wrap;rounded=0;" vertex="1" parent="ibCcVE-JZ-RD2QA-IbQj-202">
          <mxGeometry y="37.5" width="60" height="30" as="geometry" />
        </mxCell>
        <mxCell id="ibCcVE-JZ-RD2QA-IbQj-207" style="rounded=0;orthogonalLoop=1;jettySize=auto;html=1;entryX=0.5;entryY=0;entryDx=0;entryDy=0;" edge="1" parent="ibCcVE-JZ-RD2QA-IbQj-212" source="ibCcVE-JZ-RD2QA-IbQj-188" target="ibCcVE-JZ-RD2QA-IbQj-166">
          <mxGeometry relative="1" as="geometry" />
        </mxCell>
        <mxCell id="ibCcVE-JZ-RD2QA-IbQj-209" style="rounded=0;orthogonalLoop=1;jettySize=auto;html=1;entryX=0.5;entryY=0;entryDx=0;entryDy=0;" edge="1" parent="ibCcVE-JZ-RD2QA-IbQj-212" source="ibCcVE-JZ-RD2QA-IbQj-200" target="ibCcVE-JZ-RD2QA-IbQj-166">
          <mxGeometry relative="1" as="geometry" />
        </mxCell>
        <mxCell id="ibCcVE-JZ-RD2QA-IbQj-210" value="" style="endArrow=classic;html=1;rounded=0;exitX=0.5;exitY=1;exitDx=0;exitDy=0;entryX=0.5;entryY=0;entryDx=0;entryDy=0;" edge="1" parent="ibCcVE-JZ-RD2QA-IbQj-212" source="ibCcVE-JZ-RD2QA-IbQj-194" target="ibCcVE-JZ-RD2QA-IbQj-166">
          <mxGeometry width="50" height="50" relative="1" as="geometry">
            <mxPoint x="-90" y="260" as="sourcePoint" />
            <mxPoint x="-40" y="210" as="targetPoint" />
          </mxGeometry>
        </mxCell>
        <mxCell id="ibCcVE-JZ-RD2QA-IbQj-213" value="" style="group" vertex="1" connectable="0" parent="1">
          <mxGeometry x="60" y="670" width="100" height="100" as="geometry" />
        </mxCell>
        <mxCell id="ibCcVE-JZ-RD2QA-IbQj-214" value="" style="ellipse;whiteSpace=wrap;html=1;" vertex="1" parent="ibCcVE-JZ-RD2QA-IbQj-213">
          <mxGeometry width="100" height="100" as="geometry" />
        </mxCell>
        <mxCell id="ibCcVE-JZ-RD2QA-IbQj-215" value="" style="ellipse;whiteSpace=wrap;html=1;" vertex="1" parent="ibCcVE-JZ-RD2QA-IbQj-213">
          <mxGeometry x="30" width="40" height="40" as="geometry" />
        </mxCell>
        <mxCell id="ibCcVE-JZ-RD2QA-IbQj-216" value="" style="group" vertex="1" connectable="0" parent="ibCcVE-JZ-RD2QA-IbQj-213">
          <mxGeometry x="20" y="12.5" width="60" height="67.5" as="geometry" />
        </mxCell>
        <mxCell id="ibCcVE-JZ-RD2QA-IbQj-217" value="11" style="text;html=1;strokeColor=none;fillColor=none;align=center;verticalAlign=middle;whiteSpace=wrap;rounded=0;" vertex="1" parent="ibCcVE-JZ-RD2QA-IbQj-216">
          <mxGeometry x="15" width="30" height="15" as="geometry" />
        </mxCell>
        <mxCell id="ibCcVE-JZ-RD2QA-IbQj-218" value="&lt;div style=&quot;color: rgb(33, 33, 33); background-color: rgb(255, 255, 254); font-family: Consolas, &amp;quot;Courier New&amp;quot;, monospace; line-height: 16px;&quot;&gt;&lt;div style=&quot;line-height: 16px;&quot;&gt;&lt;div style=&quot;line-height: 16px;&quot;&gt;Кириловец Иван&lt;/div&gt;&lt;/div&gt;&lt;/div&gt;" style="text;html=1;strokeColor=none;fillColor=none;align=center;verticalAlign=middle;whiteSpace=wrap;rounded=0;" vertex="1" parent="ibCcVE-JZ-RD2QA-IbQj-216">
          <mxGeometry y="37.5" width="60" height="30" as="geometry" />
        </mxCell>
        <mxCell id="ibCcVE-JZ-RD2QA-IbQj-219" style="rounded=0;orthogonalLoop=1;jettySize=auto;html=1;entryX=0.5;entryY=0;entryDx=0;entryDy=0;" edge="1" parent="1" source="ibCcVE-JZ-RD2QA-IbQj-214" target="ibCcVE-JZ-RD2QA-IbQj-172">
          <mxGeometry relative="1" as="geometry" />
        </mxCell>
        <mxCell id="ibCcVE-JZ-RD2QA-IbQj-220" value="" style="group" vertex="1" connectable="0" parent="1">
          <mxGeometry x="330" y="660" width="100" height="100" as="geometry" />
        </mxCell>
        <mxCell id="ibCcVE-JZ-RD2QA-IbQj-221" value="" style="ellipse;whiteSpace=wrap;html=1;" vertex="1" parent="ibCcVE-JZ-RD2QA-IbQj-220">
          <mxGeometry width="100" height="100" as="geometry" />
        </mxCell>
        <mxCell id="ibCcVE-JZ-RD2QA-IbQj-222" value="" style="ellipse;whiteSpace=wrap;html=1;" vertex="1" parent="ibCcVE-JZ-RD2QA-IbQj-220">
          <mxGeometry x="30" width="40" height="40" as="geometry" />
        </mxCell>
        <mxCell id="ibCcVE-JZ-RD2QA-IbQj-223" value="" style="group" vertex="1" connectable="0" parent="ibCcVE-JZ-RD2QA-IbQj-220">
          <mxGeometry x="20" y="12.5" width="60" height="67.5" as="geometry" />
        </mxCell>
        <mxCell id="ibCcVE-JZ-RD2QA-IbQj-224" value="10" style="text;html=1;strokeColor=none;fillColor=none;align=center;verticalAlign=middle;whiteSpace=wrap;rounded=0;" vertex="1" parent="ibCcVE-JZ-RD2QA-IbQj-223">
          <mxGeometry x="15" width="30" height="15" as="geometry" />
        </mxCell>
        <mxCell id="ibCcVE-JZ-RD2QA-IbQj-225" value="&lt;div style=&quot;color: rgb(33, 33, 33); background-color: rgb(255, 255, 254); font-family: Consolas, &amp;quot;Courier New&amp;quot;, monospace; line-height: 16px;&quot;&gt;&lt;div style=&quot;line-height: 16px;&quot;&gt;&lt;div style=&quot;line-height: 16px;&quot;&gt;&lt;div style=&quot;line-height: 16px;&quot;&gt;Иванова Милана&lt;/div&gt;&lt;/div&gt;&lt;/div&gt;&lt;/div&gt;" style="text;html=1;strokeColor=none;fillColor=none;align=center;verticalAlign=middle;whiteSpace=wrap;rounded=0;" vertex="1" parent="ibCcVE-JZ-RD2QA-IbQj-223">
          <mxGeometry y="37.5" width="60" height="30" as="geometry" />
        </mxCell>
        <mxCell id="ibCcVE-JZ-RD2QA-IbQj-226" style="rounded=0;orthogonalLoop=1;jettySize=auto;html=1;entryX=0.5;entryY=0;entryDx=0;entryDy=0;" edge="1" parent="1" source="ibCcVE-JZ-RD2QA-IbQj-221" target="ibCcVE-JZ-RD2QA-IbQj-182">
          <mxGeometry relative="1" as="geometry" />
        </mxCell>
        <mxCell id="ibCcVE-JZ-RD2QA-IbQj-228" value="" style="group" vertex="1" connectable="0" parent="1">
          <mxGeometry x="610" y="670" width="100" height="100" as="geometry" />
        </mxCell>
        <mxCell id="ibCcVE-JZ-RD2QA-IbQj-229" value="" style="ellipse;whiteSpace=wrap;html=1;" vertex="1" parent="ibCcVE-JZ-RD2QA-IbQj-228">
          <mxGeometry width="100" height="100" as="geometry" />
        </mxCell>
        <mxCell id="ibCcVE-JZ-RD2QA-IbQj-230" value="" style="ellipse;whiteSpace=wrap;html=1;" vertex="1" parent="ibCcVE-JZ-RD2QA-IbQj-228">
          <mxGeometry x="30" width="40" height="40" as="geometry" />
        </mxCell>
        <mxCell id="ibCcVE-JZ-RD2QA-IbQj-231" value="" style="group" vertex="1" connectable="0" parent="ibCcVE-JZ-RD2QA-IbQj-228">
          <mxGeometry x="20" y="12.5" width="60" height="67.5" as="geometry" />
        </mxCell>
        <mxCell id="ibCcVE-JZ-RD2QA-IbQj-232" value="12" style="text;html=1;strokeColor=none;fillColor=none;align=center;verticalAlign=middle;whiteSpace=wrap;rounded=0;" vertex="1" parent="ibCcVE-JZ-RD2QA-IbQj-231">
          <mxGeometry x="15" width="30" height="15" as="geometry" />
        </mxCell>
        <mxCell id="ibCcVE-JZ-RD2QA-IbQj-233" value="&lt;div style=&quot;color: rgb(33, 33, 33); background-color: rgb(255, 255, 254); font-family: Consolas, &amp;quot;Courier New&amp;quot;, monospace; line-height: 16px;&quot;&gt;&lt;div style=&quot;line-height: 16px;&quot;&gt;&lt;div style=&quot;line-height: 16px;&quot;&gt;Лев Фёдор&lt;/div&gt;&lt;/div&gt;&lt;/div&gt;" style="text;html=1;strokeColor=none;fillColor=none;align=center;verticalAlign=middle;whiteSpace=wrap;rounded=0;" vertex="1" parent="ibCcVE-JZ-RD2QA-IbQj-231">
          <mxGeometry y="37.5" width="60" height="30" as="geometry" />
        </mxCell>
        <mxCell id="ibCcVE-JZ-RD2QA-IbQj-234" style="edgeStyle=orthogonalEdgeStyle;rounded=0;orthogonalLoop=1;jettySize=auto;html=1;entryX=0.5;entryY=0;entryDx=0;entryDy=0;" edge="1" parent="1" source="ibCcVE-JZ-RD2QA-IbQj-229" target="ibCcVE-JZ-RD2QA-IbQj-177">
          <mxGeometry relative="1" as="geometry" />
        </mxCell>
      </root>
    </mxGraphModel>
  </diagram>
</mxfile>
